<mxfile host="Electron" agent="Mozilla/5.0 (Windows NT 10.0; Win64; x64) AppleWebKit/537.36 (KHTML, like Gecko) draw.io/28.1.2 Chrome/138.0.7204.243 Electron/37.4.0 Safari/537.36" version="28.1.2">
  <diagram id="yPxyJZ8AM_hMuL3Unpa9" name="gitflow">
    <mxGraphModel dx="1425" dy="828" grid="1" gridSize="10" guides="1" tooltips="1" connect="1" arrows="1" fold="1" page="1" pageScale="1" pageWidth="1169" pageHeight="827" math="0" shadow="0">
      <root>
        <mxCell id="0" />
        <mxCell id="1" parent="0" />
        <mxCell id="2zbW7hnXjscifvjVdUIv-187" style="edgeStyle=orthogonalEdgeStyle;rounded=0;orthogonalLoop=1;jettySize=auto;html=1;entryX=0.5;entryY=0;entryDx=0;entryDy=0;dashed=1;strokeWidth=5;" edge="1" parent="1" source="2zbW7hnXjscifvjVdUIv-177" target="2zbW7hnXjscifvjVdUIv-186">
          <mxGeometry relative="1" as="geometry" />
        </mxCell>
        <mxCell id="2zbW7hnXjscifvjVdUIv-177" value="&lt;font style=&quot;font-size: 20px;&quot;&gt;shapes.h&lt;/font&gt;" style="rounded=0;whiteSpace=wrap;html=1;strokeColor=default;align=center;verticalAlign=middle;fontFamily=Helvetica;fontSize=12;fontColor=default;fillColor=default;" vertex="1" parent="1">
          <mxGeometry x="420" y="140" width="120" height="60" as="geometry" />
        </mxCell>
        <mxCell id="2zbW7hnXjscifvjVdUIv-185" style="edgeStyle=orthogonalEdgeStyle;rounded=0;orthogonalLoop=1;jettySize=auto;html=1;entryX=0.5;entryY=0;entryDx=0;entryDy=0;dashed=1;strokeWidth=5;" edge="1" parent="1" source="2zbW7hnXjscifvjVdUIv-178" target="2zbW7hnXjscifvjVdUIv-182">
          <mxGeometry relative="1" as="geometry" />
        </mxCell>
        <mxCell id="2zbW7hnXjscifvjVdUIv-193" style="edgeStyle=orthogonalEdgeStyle;rounded=0;orthogonalLoop=1;jettySize=auto;html=1;entryX=0.25;entryY=0;entryDx=0;entryDy=0;dashed=1;strokeWidth=5;" edge="1" parent="1" source="2zbW7hnXjscifvjVdUIv-178" target="2zbW7hnXjscifvjVdUIv-177">
          <mxGeometry relative="1" as="geometry" />
        </mxCell>
        <mxCell id="2zbW7hnXjscifvjVdUIv-194" style="edgeStyle=orthogonalEdgeStyle;rounded=0;orthogonalLoop=1;jettySize=auto;html=1;entryX=0;entryY=0.5;entryDx=0;entryDy=0;dashed=1;strokeWidth=5;" edge="1" parent="1" source="2zbW7hnXjscifvjVdUIv-178" target="2zbW7hnXjscifvjVdUIv-186">
          <mxGeometry relative="1" as="geometry" />
        </mxCell>
        <mxCell id="2zbW7hnXjscifvjVdUIv-178" value="&lt;font style=&quot;font-size: 20px;&quot;&gt;circle.h&lt;/font&gt;" style="rounded=0;whiteSpace=wrap;html=1;" vertex="1" parent="1">
          <mxGeometry x="225" y="60" width="110" height="60" as="geometry" />
        </mxCell>
        <mxCell id="2zbW7hnXjscifvjVdUIv-181" style="edgeStyle=orthogonalEdgeStyle;rounded=0;orthogonalLoop=1;jettySize=auto;html=1;entryX=0.75;entryY=0;entryDx=0;entryDy=0;dashed=1;strokeWidth=5;" edge="1" parent="1" source="2zbW7hnXjscifvjVdUIv-179" target="2zbW7hnXjscifvjVdUIv-177">
          <mxGeometry relative="1" as="geometry" />
        </mxCell>
        <mxCell id="2zbW7hnXjscifvjVdUIv-184" style="edgeStyle=orthogonalEdgeStyle;rounded=0;orthogonalLoop=1;jettySize=auto;html=1;entryX=0.5;entryY=0;entryDx=0;entryDy=0;dashed=1;strokeWidth=5;" edge="1" parent="1" source="2zbW7hnXjscifvjVdUIv-179" target="2zbW7hnXjscifvjVdUIv-183">
          <mxGeometry relative="1" as="geometry" />
        </mxCell>
        <mxCell id="2zbW7hnXjscifvjVdUIv-195" style="edgeStyle=orthogonalEdgeStyle;rounded=0;orthogonalLoop=1;jettySize=auto;html=1;entryX=1;entryY=0.5;entryDx=0;entryDy=0;dashed=1;strokeWidth=5;" edge="1" parent="1" source="2zbW7hnXjscifvjVdUIv-179" target="2zbW7hnXjscifvjVdUIv-186">
          <mxGeometry relative="1" as="geometry" />
        </mxCell>
        <mxCell id="2zbW7hnXjscifvjVdUIv-179" value="&lt;font style=&quot;font-size: 20px;&quot;&gt;rectangle.h&lt;/font&gt;" style="rounded=0;whiteSpace=wrap;html=1;" vertex="1" parent="1">
          <mxGeometry x="640" y="60" width="120" height="60" as="geometry" />
        </mxCell>
        <mxCell id="2zbW7hnXjscifvjVdUIv-197" style="edgeStyle=orthogonalEdgeStyle;rounded=0;orthogonalLoop=1;jettySize=auto;html=1;" edge="1" parent="1" source="2zbW7hnXjscifvjVdUIv-182" target="2zbW7hnXjscifvjVdUIv-198">
          <mxGeometry relative="1" as="geometry">
            <mxPoint x="290" y="500" as="targetPoint" />
          </mxGeometry>
        </mxCell>
        <mxCell id="2zbW7hnXjscifvjVdUIv-223" value="" style="edgeStyle=orthogonalEdgeStyle;rounded=0;orthogonalLoop=1;jettySize=auto;html=1;strokeWidth=5;" edge="1" parent="1" source="2zbW7hnXjscifvjVdUIv-182" target="2zbW7hnXjscifvjVdUIv-222">
          <mxGeometry relative="1" as="geometry" />
        </mxCell>
        <mxCell id="2zbW7hnXjscifvjVdUIv-182" value="&lt;font style=&quot;font-size: 20px;&quot;&gt;circle.c&lt;/font&gt;" style="rounded=0;whiteSpace=wrap;html=1;strokeColor=default;align=center;verticalAlign=middle;fontFamily=Helvetica;fontSize=12;fontColor=default;fillColor=default;" vertex="1" parent="1">
          <mxGeometry x="220" y="330" width="120" height="60" as="geometry" />
        </mxCell>
        <mxCell id="2zbW7hnXjscifvjVdUIv-203" style="edgeStyle=orthogonalEdgeStyle;rounded=0;orthogonalLoop=1;jettySize=auto;html=1;strokeWidth=5;" edge="1" parent="1" source="2zbW7hnXjscifvjVdUIv-183" target="2zbW7hnXjscifvjVdUIv-202">
          <mxGeometry relative="1" as="geometry" />
        </mxCell>
        <mxCell id="2zbW7hnXjscifvjVdUIv-183" value="&lt;font style=&quot;font-size: 20px;&quot;&gt;rectangle.c&lt;/font&gt;" style="rounded=0;whiteSpace=wrap;html=1;" vertex="1" parent="1">
          <mxGeometry x="640" y="330" width="120" height="60" as="geometry" />
        </mxCell>
        <mxCell id="2zbW7hnXjscifvjVdUIv-199" style="edgeStyle=orthogonalEdgeStyle;rounded=0;orthogonalLoop=1;jettySize=auto;html=1;strokeWidth=5;" edge="1" parent="1" source="2zbW7hnXjscifvjVdUIv-186" target="2zbW7hnXjscifvjVdUIv-201">
          <mxGeometry relative="1" as="geometry">
            <mxPoint x="525" y="480" as="targetPoint" />
          </mxGeometry>
        </mxCell>
        <mxCell id="2zbW7hnXjscifvjVdUIv-186" value="&lt;font style=&quot;font-size: 20px;&quot;&gt;shapes.c&lt;/font&gt;" style="rounded=0;whiteSpace=wrap;html=1;" vertex="1" parent="1">
          <mxGeometry x="420" y="330" width="120" height="60" as="geometry" />
        </mxCell>
        <mxCell id="2zbW7hnXjscifvjVdUIv-204" style="edgeStyle=orthogonalEdgeStyle;rounded=0;orthogonalLoop=1;jettySize=auto;html=1;strokeWidth=5;" edge="1" parent="1" source="2zbW7hnXjscifvjVdUIv-198" target="2zbW7hnXjscifvjVdUIv-205">
          <mxGeometry relative="1" as="geometry">
            <mxPoint x="280" y="610" as="targetPoint" />
          </mxGeometry>
        </mxCell>
        <mxCell id="2zbW7hnXjscifvjVdUIv-198" value="&lt;font style=&quot;font-size: 20px;&quot;&gt;circle.i&lt;/font&gt;" style="rounded=0;whiteSpace=wrap;html=1;" vertex="1" parent="1">
          <mxGeometry x="220" y="470" width="120" height="60" as="geometry" />
        </mxCell>
        <mxCell id="2zbW7hnXjscifvjVdUIv-206" style="edgeStyle=orthogonalEdgeStyle;rounded=0;orthogonalLoop=1;jettySize=auto;html=1;strokeWidth=5;" edge="1" parent="1" source="2zbW7hnXjscifvjVdUIv-201" target="2zbW7hnXjscifvjVdUIv-207">
          <mxGeometry relative="1" as="geometry">
            <mxPoint x="480" y="590" as="targetPoint" />
          </mxGeometry>
        </mxCell>
        <mxCell id="2zbW7hnXjscifvjVdUIv-201" value="&lt;font style=&quot;font-size: 20px;&quot;&gt;shapes.i&lt;/font&gt;" style="rounded=0;whiteSpace=wrap;html=1;" vertex="1" parent="1">
          <mxGeometry x="420" y="470" width="120" height="60" as="geometry" />
        </mxCell>
        <mxCell id="2zbW7hnXjscifvjVdUIv-208" style="edgeStyle=orthogonalEdgeStyle;rounded=0;orthogonalLoop=1;jettySize=auto;html=1;strokeWidth=5;" edge="1" parent="1" source="2zbW7hnXjscifvjVdUIv-202" target="2zbW7hnXjscifvjVdUIv-209">
          <mxGeometry relative="1" as="geometry">
            <mxPoint x="700" y="580" as="targetPoint" />
          </mxGeometry>
        </mxCell>
        <mxCell id="2zbW7hnXjscifvjVdUIv-202" value="&lt;font style=&quot;font-size: 20px;&quot;&gt;rectangle.i&lt;/font&gt;" style="rounded=0;whiteSpace=wrap;html=1;" vertex="1" parent="1">
          <mxGeometry x="640" y="470" width="120" height="60" as="geometry" />
        </mxCell>
        <mxCell id="2zbW7hnXjscifvjVdUIv-213" style="edgeStyle=orthogonalEdgeStyle;rounded=0;orthogonalLoop=1;jettySize=auto;html=1;entryX=0;entryY=0.5;entryDx=0;entryDy=0;strokeWidth=5;" edge="1" parent="1" source="2zbW7hnXjscifvjVdUIv-205" target="2zbW7hnXjscifvjVdUIv-211">
          <mxGeometry relative="1" as="geometry" />
        </mxCell>
        <mxCell id="2zbW7hnXjscifvjVdUIv-205" value="&lt;font style=&quot;font-size: 20px;&quot;&gt;circle.o&lt;/font&gt;" style="rounded=0;whiteSpace=wrap;html=1;" vertex="1" parent="1">
          <mxGeometry x="220" y="580" width="120" height="60" as="geometry" />
        </mxCell>
        <mxCell id="2zbW7hnXjscifvjVdUIv-210" style="edgeStyle=orthogonalEdgeStyle;rounded=0;orthogonalLoop=1;jettySize=auto;html=1;strokeWidth=5;" edge="1" parent="1" source="2zbW7hnXjscifvjVdUIv-207" target="2zbW7hnXjscifvjVdUIv-211">
          <mxGeometry relative="1" as="geometry">
            <mxPoint x="480" y="720" as="targetPoint" />
          </mxGeometry>
        </mxCell>
        <mxCell id="2zbW7hnXjscifvjVdUIv-207" value="&lt;font style=&quot;font-size: 20px;&quot;&gt;shapes.o&lt;/font&gt;" style="rounded=0;whiteSpace=wrap;html=1;" vertex="1" parent="1">
          <mxGeometry x="420" y="580" width="120" height="60" as="geometry" />
        </mxCell>
        <mxCell id="2zbW7hnXjscifvjVdUIv-214" style="edgeStyle=orthogonalEdgeStyle;rounded=0;orthogonalLoop=1;jettySize=auto;html=1;entryX=1;entryY=0.5;entryDx=0;entryDy=0;strokeWidth=5;" edge="1" parent="1" source="2zbW7hnXjscifvjVdUIv-209" target="2zbW7hnXjscifvjVdUIv-211">
          <mxGeometry relative="1" as="geometry" />
        </mxCell>
        <mxCell id="2zbW7hnXjscifvjVdUIv-209" value="&lt;font style=&quot;font-size: 20px;&quot;&gt;rectangle.o&lt;/font&gt;" style="rounded=0;whiteSpace=wrap;html=1;" vertex="1" parent="1">
          <mxGeometry x="640" y="580" width="120" height="60" as="geometry" />
        </mxCell>
        <mxCell id="2zbW7hnXjscifvjVdUIv-211" value="&lt;font style=&quot;font-size: 20px;&quot;&gt;shapes.exe&lt;/font&gt;" style="rounded=0;whiteSpace=wrap;html=1;" vertex="1" parent="1">
          <mxGeometry x="420" y="750" width="120" height="60" as="geometry" />
        </mxCell>
        <mxCell id="2zbW7hnXjscifvjVdUIv-215" value="" style="verticalLabelPosition=bottom;verticalAlign=top;html=1;shape=mxgraph.basic.patternFillRect;fillStyle=diag;step=5;fillStrokeWidth=0.2;fillStrokeColor=#dddddd;opacity=50;fillColor=#dae8fc;strokeColor=#6c8ebf;" vertex="1" parent="1">
          <mxGeometry x="70" y="20" width="950" height="420" as="geometry" />
        </mxCell>
        <mxCell id="2zbW7hnXjscifvjVdUIv-216" value="" style="verticalLabelPosition=bottom;verticalAlign=top;html=1;shape=mxgraph.basic.patternFillRect;fillStyle=diag;step=5;fillStrokeWidth=0.2;fillStrokeColor=#dddddd;opacity=50;fillColor=#ffe6cc;strokeColor=#d79b00;" vertex="1" parent="1">
          <mxGeometry x="10" y="530" width="970" height="50" as="geometry" />
        </mxCell>
        <mxCell id="2zbW7hnXjscifvjVdUIv-217" value="" style="verticalLabelPosition=bottom;verticalAlign=top;html=1;shape=mxgraph.basic.patternFillRect;fillStyle=diag;step=5;fillStrokeWidth=0.2;fillStrokeColor=#dddddd;opacity=50;fillColor=#f8cecc;strokeColor=#b85450;" vertex="1" parent="1">
          <mxGeometry x="120" y="640" width="820" height="110" as="geometry" />
        </mxCell>
        <mxCell id="2zbW7hnXjscifvjVdUIv-218" value="&lt;font style=&quot;font-size: 20px;&quot;&gt;Preprosessering&lt;/font&gt;" style="text;html=1;align=center;verticalAlign=middle;resizable=0;points=[];autosize=1;strokeColor=#6c8ebf;fillColor=#dae8fc;" vertex="1" parent="1">
          <mxGeometry x="830" y="40" width="170" height="40" as="geometry" />
        </mxCell>
        <mxCell id="2zbW7hnXjscifvjVdUIv-220" value="&lt;span style=&quot;font-size: 20px;&quot;&gt;Kompilering&lt;/span&gt;" style="text;html=1;align=center;verticalAlign=middle;resizable=0;points=[];autosize=1;strokeColor=#d79b00;fillColor=#ffe6cc;" vertex="1" parent="1">
          <mxGeometry x="770" y="540" width="130" height="40" as="geometry" />
        </mxCell>
        <mxCell id="2zbW7hnXjscifvjVdUIv-221" value="&lt;span style=&quot;font-size: 20px;&quot;&gt;Lenking&lt;/span&gt;" style="text;html=1;align=center;verticalAlign=middle;resizable=0;points=[];autosize=1;strokeColor=#b85450;fillColor=#f8cecc;" vertex="1" parent="1">
          <mxGeometry x="820" y="670" width="90" height="40" as="geometry" />
        </mxCell>
        <mxCell id="2zbW7hnXjscifvjVdUIv-222" value="&lt;font style=&quot;font-size: 20px;&quot;&gt;circle.i&lt;/font&gt;" style="rounded=0;whiteSpace=wrap;html=1;strokeColor=default;align=center;verticalAlign=middle;fontFamily=Helvetica;fontSize=12;fontColor=default;fillColor=default;" vertex="1" parent="1">
          <mxGeometry x="220" y="470" width="120" height="60" as="geometry" />
        </mxCell>
        <mxCell id="2zbW7hnXjscifvjVdUIv-229" style="edgeStyle=orthogonalEdgeStyle;rounded=0;orthogonalLoop=1;jettySize=auto;html=1;entryX=1;entryY=0.5;entryDx=0;entryDy=0;entryPerimeter=0;exitX=0.5;exitY=1;exitDx=0;exitDy=0;shape=flexArrow;strokeWidth=5;" edge="1" parent="1" source="2zbW7hnXjscifvjVdUIv-224" target="2zbW7hnXjscifvjVdUIv-217">
          <mxGeometry relative="1" as="geometry">
            <mxPoint x="1110" y="800" as="targetPoint" />
          </mxGeometry>
        </mxCell>
        <mxCell id="2zbW7hnXjscifvjVdUIv-224" value="&lt;span style=&quot;font-size: 20px;&quot;&gt;Makefile&lt;/span&gt;" style="rounded=0;whiteSpace=wrap;html=1;" vertex="1" parent="1">
          <mxGeometry x="1049" y="525" width="120" height="60" as="geometry" />
        </mxCell>
        <mxCell id="2zbW7hnXjscifvjVdUIv-225" style="edgeStyle=orthogonalEdgeStyle;rounded=0;orthogonalLoop=1;jettySize=auto;html=1;entryX=1;entryY=0.5;entryDx=0;entryDy=0;entryPerimeter=0;exitX=0.5;exitY=0;exitDx=0;exitDy=0;shape=flexArrow;strokeWidth=5;" edge="1" parent="1" source="2zbW7hnXjscifvjVdUIv-224" target="2zbW7hnXjscifvjVdUIv-215">
          <mxGeometry relative="1" as="geometry" />
        </mxCell>
        <mxCell id="2zbW7hnXjscifvjVdUIv-226" style="edgeStyle=orthogonalEdgeStyle;rounded=0;orthogonalLoop=1;jettySize=auto;html=1;entryX=1;entryY=0.5;entryDx=0;entryDy=0;entryPerimeter=0;shape=flexArrow;strokeWidth=5;" edge="1" parent="1" source="2zbW7hnXjscifvjVdUIv-224" target="2zbW7hnXjscifvjVdUIv-216">
          <mxGeometry relative="1" as="geometry" />
        </mxCell>
      </root>
    </mxGraphModel>
  </diagram>
</mxfile>
